<?xml version="1.0" standalone="no"?>
<!DOCTYPE svg PUBLIC "-//W3C//DTD SVG 20010904//EN"
 "http://www.w3.org/TR/2001/REC-SVG-20010904/DTD/svg10.dtd">
<svg version="1.0" xmlns="http://www.w3.org/2000/svg"
 width="431.000000pt" height="431.000000pt" viewBox="0 0 431.000000 431.000000"
 preserveAspectRatio="xMidYMid meet">
<metadata>
Created by potrace 1.14, written by Peter Selinger 2001-2017
</metadata>
<g transform="translate(0.000000,431.000000) scale(0.100000,-0.100000)"
fill="#000000" stroke="none">
<path d="M1301 3946 l-51 -52 0 -100 0 -99 98 -26 97 -25 3 -37 3 -36 -68 19
c-37 10 -104 28 -149 40 l-81 21 -51 -53 -52 -53 0 -234 c0 -198 -2 -232 -14
-228 -8 3 -30 9 -50 12 -32 7 -39 3 -86 -41 l-50 -49 0 -102 0 -103 27 -6 c16
-3 42 -10 58 -14 17 -5 49 -14 73 -20 l42 -11 0 -199 0 -199 38 -11 c20 -6
109 -30 197 -54 l160 -43 3 -136 3 -136 -93 25 c-51 14 -119 32 -150 41 l-57
15 -3 101 -3 100 -195 53 -195 53 -52 -52 -53 -51 0 -101 0 -100 98 -25 97
-25 3 -37 3 -36 -47 14 -48 14 -53 -52 -54 -53 3 -100 3 -100 195 -52 195 -53
52 52 c43 42 53 59 53 85 0 38 -3 37 56 22 l44 -11 0 -302 0 -301 168 -44 c92
-25 182 -48 200 -53 28 -8 32 -13 32 -45 0 -32 -2 -35 -22 -29 -13 3 -80 21
-150 40 l-126 34 -51 -52 -51 -52 0 -100 0 -100 63 -16 c34 -8 165 -43 291
-77 125 -33 233 -61 239 -61 5 0 32 22 59 50 l48 49 0 135 0 134 68 -18 c37
-10 104 -28 149 -40 l83 -22 2 -201 3 -201 180 -48 c337 -91 403 -108 407
-108 3 0 28 23 56 50 l52 51 0 99 0 99 -42 12 c-24 6 -113 30 -198 53 l-155
41 -3 37 -3 37 33 -10 c18 -5 85 -23 149 -40 l117 -31 51 53 51 52 0 234 0
233 28 -6 c75 -18 72 -14 72 -122 l0 -99 173 -46 c94 -25 184 -49 198 -52 22
-6 35 1 78 44 l51 50 0 100 0 100 -42 11 c-167 44 -158 40 -158 78 0 31 2 34
25 28 14 -3 36 -9 49 -12 19 -5 34 4 75 46 l51 51 0 99 0 99 -42 11 c-24 7
-81 22 -128 35 -47 13 -117 31 -157 41 l-72 18 -51 -49 c-41 -42 -50 -56 -50
-86 l0 -36 -150 40 -150 40 0 134 0 135 28 -6 c15 -4 81 -22 147 -40 l120 -34
53 51 52 51 0 133 c0 145 -2 141 60 123 33 -10 36 -8 88 43 l53 52 -3 100 -3
100 -95 25 -95 25 -3 301 -2 301 -163 43 c-89 24 -179 47 -199 53 -35 9 -38
12 -38 44 0 32 2 35 25 29 14 -3 36 -9 49 -12 19 -4 33 5 75 48 l51 53 0 97
c0 83 -2 97 -17 102 -10 3 -144 39 -298 80 l-280 75 -53 -52 -53 -52 3 -99 3
-100 95 -25 95 -26 3 -37 c3 -37 3 -37 -25 -28 -22 7 -438 119 -630 170 -40
10 -43 13 -43 46 0 27 4 35 14 31 8 -3 31 -9 50 -13 33 -6 40 -3 86 44 l50 50
0 100 0 99 -177 48 c-98 26 -233 62 -300 80 l-121 33 -51 -52z"/>
</g>
</svg>
